<svg xmlns="http://www.w3.org/2000/svg" xmlns:xlink="http://www.w3.org/1999/xlink" contentStyleType="text/css" height="2030px" preserveAspectRatio="none" style="width:1039px;height:2030px;background:#FFFFFF;" version="1.1" viewBox="0 0 1039 2030" width="1039px" zoomAndPan="magnify"><defs/><g><g id="Inicio"><rect fill="#FFFFFF" height="50" rx="12.5" ry="12.5" style="stroke:#008000;stroke-width:2.0;" width="57.0439" x="844.41" y="92"/><line style="stroke:#008000;stroke-width:2.0;" x1="844.41" x2="901.4539" y1="118.2969" y2="118.2969"/><text fill="#000000" font-family="Verdana" font-size="14" lengthAdjust="spacing" textLength="37.0439" x="854.41" y="109.9951">Inicio</text></g><g id="Prepara"><rect fill="#FFFFFF" height="120.1094" rx="12.5" ry="12.5" style="stroke:#000000;stroke-width:1.0;" width="155.9141" x="554.97" y="219"/><line style="stroke:#000000;stroke-width:1.0;" x1="554.97" x2="710.8841" y1="245.2969" y2="245.2969"/><text fill="#000000" font-family="Verdana" font-size="14" lengthAdjust="spacing" textLength="54.6123" x="605.6209" y="236.9951">Prepara</text><text fill="#000000" font-family="Verdana" font-size="12" lengthAdjust="spacing" textLength="125.3555" x="559.97" y="261.4355">zera_sensor_agua=1</text><text fill="#000000" font-family="Verdana" font-size="12" lengthAdjust="spacing" textLength="132.0996" x="559.97" y="275.4043">zera_sensor_xicara=1</text><text fill="#000000" font-family="Verdana" font-size="12" lengthAdjust="spacing" textLength="91.2773" x="559.97" y="289.373">zera_bomba=1</text><text fill="#000000" font-family="Verdana" font-size="12" lengthAdjust="spacing" textLength="92.8418" x="559.97" y="303.3418">zera_valvula=1</text><text fill="#000000" font-family="Verdana" font-size="12" lengthAdjust="spacing" textLength="82.248" x="559.97" y="317.3105">zera_serial=1</text><text fill="#000000" font-family="Verdana" font-size="12" lengthAdjust="spacing" textLength="98.8242" x="559.97" y="331.2793">zera_ebulidor=1</text></g><g id="EsperaModo"><rect fill="#FFFFFF" height="50" rx="12.5" ry="12.5" style="stroke:#000000;stroke-width:1.0;" width="106.0713" x="486.89" y="400.11"/><line style="stroke:#000000;stroke-width:1.0;" x1="486.89" x2="592.9613" y1="426.4069" y2="426.4069"/><text fill="#000000" font-family="Verdana" font-size="14" lengthAdjust="spacing" textLength="86.0713" x="496.89" y="418.1051">EsperaModo</text></g><g id="PreparaSensorAgua"><rect fill="#FFFFFF" height="50.2656" rx="12.5" ry="12.5" style="stroke:#000000;stroke-width:1.0;" width="158.5166" x="390.67" y="527.11"/><line style="stroke:#000000;stroke-width:1.0;" x1="390.67" x2="549.1866" y1="553.4069" y2="553.4069"/><text fill="#000000" font-family="Verdana" font-size="14" lengthAdjust="spacing" textLength="138.5166" x="400.67" y="545.1051">PreparaSensorAgua</text><text fill="#000000" font-family="Verdana" font-size="12" lengthAdjust="spacing" textLength="125.3555" x="395.67" y="569.5455">zera_sensor_agua=1</text></g><g id="AtivaSensorAgua"><rect fill="#FFFFFF" height="50.2656" rx="12.5" ry="12.5" style="stroke:#000000;stroke-width:1.0;" width="139.7246" x="260.07" y="654.37"/><line style="stroke:#000000;stroke-width:1.0;" x1="260.07" x2="399.7946" y1="680.6669" y2="680.6669"/><text fill="#000000" font-family="Verdana" font-size="14" lengthAdjust="spacing" textLength="119.7246" x="270.07" y="672.3651">AtivaSensorAgua</text><text fill="#000000" font-family="Verdana" font-size="12" lengthAdjust="spacing" textLength="88.5762" x="265.07" y="696.8055">medir_agua=1</text></g><g id="EsperaSensorAgua"><rect fill="#FFFFFF" height="50.2656" rx="12.5" ry="12.5" style="stroke:#00FFFF;stroke-width:2.0;" width="159.9863" x="265.94" y="765.64"/><line style="stroke:#00FFFF;stroke-width:2.0;" x1="265.94" x2="425.9263" y1="791.9369" y2="791.9369"/><text fill="#000000" font-family="Verdana" font-size="14" lengthAdjust="spacing" textLength="131.8789" x="279.9937" y="783.6351">EsperaSensorAgua</text><text fill="#000000" font-family="Verdana" font-size="12" lengthAdjust="spacing" textLength="139.9863" x="270.94" y="808.0755">conta_timeout_agua=1</text></g><g id="PreparaSensorXicara"><rect fill="#FFFFFF" height="50.2656" rx="12.5" ry="12.5" style="stroke:#000000;stroke-width:1.0;" width="166.6924" x="129.58" y="892.9"/><line style="stroke:#000000;stroke-width:1.0;" x1="129.58" x2="296.2724" y1="919.1969" y2="919.1969"/><text fill="#000000" font-family="Verdana" font-size="14" lengthAdjust="spacing" textLength="146.6924" x="139.58" y="910.8951">PreparaSensorXicara</text><text fill="#000000" font-family="Verdana" font-size="12" lengthAdjust="spacing" textLength="132.0996" x="134.58" y="935.3355">zera_sensor_xicara=1</text></g><g id="AtivaSensorXicara"><rect fill="#FFFFFF" height="50.2656" rx="12.5" ry="12.5" style="stroke:#000000;stroke-width:1.0;" width="147.9004" x="359.98" y="1020.17"/><line style="stroke:#000000;stroke-width:1.0;" x1="359.98" x2="507.8804" y1="1046.4669" y2="1046.4669"/><text fill="#000000" font-family="Verdana" font-size="14" lengthAdjust="spacing" textLength="127.9004" x="369.98" y="1038.1651">AtivaSensorXicara</text><text fill="#000000" font-family="Verdana" font-size="12" lengthAdjust="spacing" textLength="104.625" x="364.98" y="1062.6055">verifica_xicara=1</text></g><g id="EsperaSensorXicara"><rect fill="#FFFFFF" height="50.2656" rx="12.5" ry="12.5" style="stroke:#00FFFF;stroke-width:2.0;" width="166.7305" x="244.56" y="1131.44"/><line style="stroke:#00FFFF;stroke-width:2.0;" x1="244.56" x2="411.2905" y1="1157.7369" y2="1157.7369"/><text fill="#000000" font-family="Verdana" font-size="14" lengthAdjust="spacing" textLength="140.0547" x="257.8979" y="1149.4351">EsperaSensorXicara</text><text fill="#000000" font-family="Verdana" font-size="12" lengthAdjust="spacing" textLength="146.7305" x="249.56" y="1173.8755">conta_timeout_xicara=1</text></g><g id="ErroSemAgua"><rect fill="#FFFFFF" height="50.2656" rx="12.5" ry="12.5" style="stroke:#FF0000;stroke-width:2.0;" width="129.5352" x="570.16" y="892.9"/><line style="stroke:#FF0000;stroke-width:2.0;" x1="570.16" x2="699.6952" y1="919.1969" y2="919.1969"/><text fill="#000000" font-family="Verdana" font-size="14" lengthAdjust="spacing" textLength="95.9766" x="586.9393" y="910.8951">ErroSemAgua</text><text fill="#000000" font-family="Verdana" font-size="12" lengthAdjust="spacing" textLength="109.5352" x="575.16" y="935.3355">erro_sem_agua=1</text></g><g id="ErroSemXicara"><rect fill="#FFFFFF" height="50.2656" rx="12.5" ry="12.5" style="stroke:#FF0000;stroke-width:2.0;" width="136.2793" x="544.79" y="1258.7"/><line style="stroke:#FF0000;stroke-width:2.0;" x1="544.79" x2="681.0693" y1="1284.9969" y2="1284.9969"/><text fill="#000000" font-family="Verdana" font-size="14" lengthAdjust="spacing" textLength="104.1523" x="560.8535" y="1276.6951">ErroSemXicara</text><text fill="#000000" font-family="Verdana" font-size="12" lengthAdjust="spacing" textLength="116.2793" x="549.79" y="1301.1355">erro_sem_xicara=1</text></g><g id="AtivaBomba"><rect fill="#FFFFFF" height="50.2656" rx="12.5" ry="12.5" style="stroke:#000000;stroke-width:1.0;" width="115.1563" x="315.35" y="1258.7"/><line style="stroke:#000000;stroke-width:1.0;" x1="315.35" x2="430.5063" y1="1284.9969" y2="1284.9969"/><text fill="#000000" font-family="Verdana" font-size="14" lengthAdjust="spacing" textLength="85.0938" x="330.3813" y="1276.6951">AtivaBomba</text><text fill="#000000" font-family="Verdana" font-size="12" lengthAdjust="spacing" textLength="95.1563" x="320.35" y="1301.1355">ativa_bomba=1</text></g><g id="EsperaBomba"><rect fill="#FFFFFF" height="50" rx="12.5" ry="12.5" style="stroke:#000000;stroke-width:1.0;" width="117.248" x="421.31" y="1369.97"/><line style="stroke:#000000;stroke-width:1.0;" x1="421.31" x2="538.558" y1="1396.2669" y2="1396.2669"/><text fill="#000000" font-family="Verdana" font-size="14" lengthAdjust="spacing" textLength="97.248" x="431.31" y="1387.9651">EsperaBomba</text></g><g id="AtivaEbulidor"><rect fill="#FFFFFF" height="50.2656" rx="12.5" ry="12.5" style="stroke:#000000;stroke-width:1.0;" width="122.7031" x="467.58" y="1496.97"/><line style="stroke:#000000;stroke-width:1.0;" x1="467.58" x2="590.2831" y1="1523.2669" y2="1523.2669"/><text fill="#000000" font-family="Verdana" font-size="14" lengthAdjust="spacing" textLength="93.4131" x="482.225" y="1514.9651">AtivaEbulidor</text><text fill="#000000" font-family="Verdana" font-size="12" lengthAdjust="spacing" textLength="102.7031" x="472.58" y="1539.4055">ativa_ebulidor=1</text></g><g id="EsperaEbulidor"><rect fill="#FFFFFF" height="50" rx="12.5" ry="12.5" style="stroke:#000000;stroke-width:1.0;" width="125.5674" x="478.15" y="1608.23"/><line style="stroke:#000000;stroke-width:1.0;" x1="478.15" x2="603.7174" y1="1634.5269" y2="1634.5269"/><text fill="#000000" font-family="Verdana" font-size="14" lengthAdjust="spacing" textLength="105.5674" x="488.15" y="1626.2251">EsperaEbulidor</text></g><g id="ErroEbulidor"><rect fill="#FFFFFF" height="50.2656" rx="12.5" ry="12.5" style="stroke:#FF0000;stroke-width:2.0;" width="117.4473" x="819.21" y="1735.23"/><line style="stroke:#FF0000;stroke-width:2.0;" x1="819.21" x2="936.6573" y1="1761.5269" y2="1761.5269"/><text fill="#000000" font-family="Verdana" font-size="14" lengthAdjust="spacing" textLength="86.5156" x="834.6758" y="1753.2251">ErroEbulidor</text><text fill="#000000" font-family="Verdana" font-size="12" lengthAdjust="spacing" textLength="97.4473" x="824.21" y="1777.6655">erro_ebulidor=1</text></g><g id="AtivaValvula"><rect fill="#FFFFFF" height="50.2656" rx="12.5" ry="12.5" style="stroke:#000000;stroke-width:1.0;" width="116.7207" x="616.57" y="1735.23"/><line style="stroke:#000000;stroke-width:1.0;" x1="616.57" x2="733.2907" y1="1761.5269" y2="1761.5269"/><text fill="#000000" font-family="Verdana" font-size="14" lengthAdjust="spacing" textLength="87.4932" x="631.1838" y="1753.2251">AtivaValvula</text><text fill="#000000" font-family="Verdana" font-size="12" lengthAdjust="spacing" textLength="96.7207" x="621.57" y="1777.6655">ativa_valvula=1</text></g><g id="EsperaValvula"><rect fill="#FFFFFF" height="50.2656" rx="12.5" ry="12.5" style="stroke:#000000;stroke-width:1.0;" width="119.6475" x="712.11" y="1846.5"/><line style="stroke:#000000;stroke-width:1.0;" x1="712.11" x2="831.7575" y1="1872.7969" y2="1872.7969"/><text fill="#000000" font-family="Verdana" font-size="14" lengthAdjust="spacing" textLength="99.6475" x="722.11" y="1864.4951">EsperaValvula</text><text fill="#000000" font-family="Verdana" font-size="12" lengthAdjust="spacing" textLength="3.8145" x="717.11" y="1888.9355">&#160;</text></g><g id="Fim"><rect fill="#FFFFFF" height="50.2656" rx="12.5" ry="12.5" style="stroke:#FF0000;stroke-width:2.0;" width="56.9375" x="868.46" y="1973.76"/><line style="stroke:#FF0000;stroke-width:2.0;" x1="868.46" x2="925.3975" y1="2000.0569" y2="2000.0569"/><text fill="#000000" font-family="Verdana" font-size="14" lengthAdjust="spacing" textLength="25.5801" x="884.1387" y="1991.7551">Fim</text><text fill="#000000" font-family="Verdana" font-size="12" lengthAdjust="spacing" textLength="36.9375" x="873.46" y="2016.1955">fim=1</text></g><ellipse cx="872.93" cy="21" fill="#FFFFFF" rx="10" ry="10" style="stroke:#000000;stroke-width:1.0;"/><!--link *start* to Inicio--><g id="link_*start*_Inicio"><path d="M872.93,31.36 C872.93,45.29 872.93,65.95 872.93,85.65 " fill="none" id="*start*-to-Inicio" style="stroke:#000000;stroke-width:1.0;"/><polygon fill="#000000" points="872.93,91.65,876.93,82.65,872.93,86.65,868.93,82.65,872.93,91.65" style="stroke:#000000;stroke-width:1.0;"/></g><!--link Inicio to Inicio--><g id="link_Inicio_Inicio"><path d="M901.67,107.33 C919.49,104.99 936.45,108.22 936.45,117 C936.45,125.78 925.4394,129.7779 907.6194,127.4479 " fill="none" id="Inicio-to-Inicio" style="stroke:#000000;stroke-width:1.0;"/><polygon fill="#000000" points="901.67,126.67,910.0754,131.8031,906.6278,127.3182,911.1126,123.8706,901.67,126.67" style="stroke:#000000;stroke-width:1.0;"/><text fill="#000000" font-family="Verdana" font-size="13" lengthAdjust="spacing" textLength="83.897" x="942.45" y="121.5669">preparar = 0</text></g><!--link Inicio to Prepara--><g id="link_Inicio_Prepara"><path d="M843.94,119.85 C805.16,123.7 736.06,135.55 690.93,172 C675.75,184.26 666.7026,196.2838 657.8226,213.4038 " fill="none" id="Inicio-to-Prepara" style="stroke:#000000;stroke-width:1.0;"/><polygon fill="#000000" points="655.06,218.73,662.7547,212.5825,657.3622,214.2915,655.6532,208.899,655.06,218.73" style="stroke:#000000;stroke-width:1.0;"/><text fill="#000000" font-family="Verdana" font-size="13" lengthAdjust="spacing" textLength="83.897" x="691.93" y="185.0669">preparar = 1</text></g><!--link Prepara to EsperaModo--><g id="link_Prepara_EsperaModo"><path d="M594.57,339.48 C580.96,360.56 569.6453,378.0899 558.9753,394.6099 " fill="none" id="Prepara-to-EsperaModo" style="stroke:#000000;stroke-width:1.0;"/><polygon fill="#000000" points="555.72,399.65,563.9631,394.26,558.4328,395.4499,557.2429,389.9196,555.72,399.65" style="stroke:#000000;stroke-width:1.0;"/></g><!--link EsperaModo to EsperaModo--><g id="link_EsperaModo_EsperaModo"><path d="M593.22,414.71 C612.36,414.49 627.97,417.95 627.97,425.11 C627.97,432.26 618.3596,435.8021 599.2196,435.5721 " fill="none" id="EsperaModo-to-EsperaModo" style="stroke:#000000;stroke-width:1.0;"/><polygon fill="#000000" points="593.22,435.5,602.1713,439.6079,598.2196,435.5601,602.2674,431.6084,593.22,435.5" style="stroke:#000000;stroke-width:1.0;"/><text fill="#000000" font-family="Verdana" font-size="13" lengthAdjust="spacing" textLength="103.8096" x="633.97" y="429.6769">pronto_serial=0</text></g><!--link EsperaModo to PreparaSensorAgua--><g id="link_EsperaModo_PreparaSensorAgua"><path d="M526.27,450.53 C513.93,472.58 498.8086,499.6133 486.4886,521.6433 " fill="none" id="EsperaModo-to-PreparaSensorAgua" style="stroke:#000000;stroke-width:1.0;"/><polygon fill="#000000" points="483.56,526.88,491.444,520.9773,486.0005,522.5161,484.4617,517.0725,483.56,526.88" style="stroke:#000000;stroke-width:1.0;"/><text fill="#000000" font-family="Verdana" font-size="13" lengthAdjust="spacing" textLength="103.8096" x="510.93" y="493.1769">pronto_serial=1</text></g><!--link PreparaSensorAgua to AtivaSensorAgua--><g id="link_PreparaSensorAgua_AtivaSensorAgua"><path d="M442.6,577.69 C417.94,599.76 386.3011,628.0689 361.6611,650.1189 " fill="none" id="PreparaSensorAgua-to-AtivaSensorAgua" style="stroke:#000000;stroke-width:1.0;"/><polygon fill="#000000" points="357.19,654.12,366.5641,651.099,360.9159,650.7857,361.2292,645.1375,357.19,654.12" style="stroke:#000000;stroke-width:1.0;"/><text fill="#000000" font-family="Verdana" font-size="13" lengthAdjust="spacing" textLength="0" x="409.93" y="620.4369">&#8206;&#8206;&#8206;</text></g><!--link AtivaSensorAgua to EsperaSensorAgua--><g id="link_AtivaSensorAgua_EsperaSensorAgua"><path d="M333.52,705.03 C336.16,723.02 338.8511,741.4232 341.4811,759.3932 " fill="none" id="AtivaSensorAgua-to-EsperaSensorAgua" style="stroke:#000000;stroke-width:1.0;"/><polygon fill="#000000" points="342.35,765.33,345.0045,755.8456,341.6259,760.3827,337.0889,757.0041,342.35,765.33" style="stroke:#000000;stroke-width:1.0;"/></g><!--link EsperaSensorAgua to PreparaSensorAgua--><g id="link_EsperaSensorAgua_PreparaSensorAgua"><path d="M370.27,765.48 C385.35,749.35 404.21,727.07 416.93,704.64 C440.63,662.85 454.9806,614.4573 462.7906,583.5373 " fill="none" id="EsperaSensorAgua-to-PreparaSensorAgua" style="stroke:#000000;stroke-width:1.0;"/><polygon fill="#000000" points="464.26,577.72,458.1777,585.4664,463.0355,582.5677,465.9341,587.4255,464.26,577.72" style="stroke:#000000;stroke-width:1.0;"/><text fill="#000000" font-family="Verdana" font-size="13" lengthAdjust="spacing" textLength="277.6592" x="440.93" y="684.0769">timeout_agua=1 &amp; pronto_sensor_agua=0</text></g><!--link EsperaSensorAgua to ErroSemAgua--><g id="link_EsperaSensorAgua_ErroSemAgua"><path d="M407.18,816.35 C429.26,825.41 454.31,835.9 476.93,845.9 C493.11,853.06 496.84,855.54 512.93,862.9 C534.42,872.74 552.6617,880.9154 573.4417,890.0954 " fill="none" id="EsperaSensorAgua-to-ErroSemAgua" style="stroke:#000000;stroke-width:1.0;"/><polygon fill="#000000" points="578.93,892.52,572.3139,885.2243,574.3564,890.4995,569.0812,892.542,578.93,892.52" style="stroke:#000000;stroke-width:1.0;"/><text fill="#000000" font-family="Verdana" font-size="13" lengthAdjust="spacing" textLength="261.5044" x="513.93" y="858.9669">pronto_sensor_agua=1 &amp;&amp; suficiente=0</text></g><!--link EsperaSensorAgua to PreparaSensorXicara--><g id="link_EsperaSensorAgua_PreparaSensorXicara"><path d="M265.44,806.4 C243.85,814.39 222.91,826.77 209.93,845.9 C200.77,859.41 200.5909,872.0358 203.7809,886.7758 " fill="none" id="EsperaSensorAgua-to-PreparaSensorXicara" style="stroke:#000000;stroke-width:1.0;"/><polygon fill="#000000" points="205.05,892.64,207.0558,882.9976,203.9924,887.7531,199.2368,884.6897,205.05,892.64" style="stroke:#000000;stroke-width:1.0;"/><text fill="#000000" font-family="Verdana" font-size="13" lengthAdjust="spacing" textLength="261.5044" x="210.93" y="858.9669">pronto_sensor_agua=1 &amp;&amp; suficiente=1</text></g><!--link EsperaSensorAgua to EsperaSensorAgua--><g id="link_EsperaSensorAgua_EsperaSensorAgua"><path d="M426.27,780.49 C446.12,781.23 460.92,784.66 460.92,790.77 C460.92,796.88 452.1158,800.0865 432.2658,800.8265 " fill="none" id="EsperaSensorAgua-to-EsperaSensorAgua" style="stroke:#000000;stroke-width:1.0;"/><polygon fill="#000000" points="426.27,801.05,435.4128,804.7119,431.2665,800.8637,435.1147,796.7175,426.27,801.05" style="stroke:#000000;stroke-width:1.0;"/><text fill="#000000" font-family="Verdana" font-size="13" lengthAdjust="spacing" textLength="287.7964" x="466.92" y="795.3369">pronto_sensor_agua=0 &amp;&amp; timeout_agua=0</text></g><!--link PreparaSensorXicara to AtivaSensorXicara--><g id="link_PreparaSensorXicara_AtivaSensorXicara"><path d="M256.33,943.64 C295.17,965.65 346.6003,994.8011 385.4103,1016.8011 " fill="none" id="PreparaSensorXicara-to-AtivaSensorXicara" style="stroke:#000000;stroke-width:1.0;"/><polygon fill="#000000" points="390.63,1019.76,384.773,1011.8419,386.2803,1017.2943,380.8279,1018.8015,390.63,1019.76" style="stroke:#000000;stroke-width:1.0;"/><text fill="#000000" font-family="Verdana" font-size="13" lengthAdjust="spacing" textLength="0" x="337.93" y="986.2369">&#8206;&#8206;&#8206;</text></g><!--link AtivaSensorXicara to EsperaSensorXicara--><g id="link_AtivaSensorXicara_EsperaSensorXicara"><path d="M410.14,1070.82 C392.68,1088.82 373.2575,1108.8432 355.8175,1126.8232 " fill="none" id="AtivaSensorXicara-to-EsperaSensorXicara" style="stroke:#000000;stroke-width:1.0;"/><polygon fill="#000000" points="351.64,1131.13,360.7774,1127.4547,355.1212,1127.541,355.035,1121.8848,351.64,1131.13" style="stroke:#000000;stroke-width:1.0;"/></g><!--link EsperaSensorXicara to PreparaSensorXicara--><g id="link_EsperaSensorXicara_PreparaSensorXicara"><path d="M244.23,1141.28 C170.9,1126.85 72.43,1102.18 48.93,1070.44 C11,1019.21 84.067,973.7811 145.057,946.0811 " fill="none" id="EsperaSensorXicara-to-PreparaSensorXicara" style="stroke:#000000;stroke-width:1.0;"/><polygon fill="#000000" points="150.52,943.6,140.6715,943.6797,145.9675,945.6676,143.9796,950.9637,150.52,943.6" style="stroke:#000000;stroke-width:1.0;"/><text fill="#000000" font-family="Verdana" font-size="13" lengthAdjust="spacing" textLength="292.2715" x="49.93" y="1049.8669">timeout_xicara=1 &amp; pronto_sensor_xicara=0</text></g><!--link EsperaSensorXicara to ErroSemXicara--><g id="link_EsperaSensorXicara_ErroSemXicara"><path d="M411.58,1170.7 C449.81,1178.93 494.75,1191.87 531.93,1211.7 C554.39,1223.68 571.6377,1238.7274 586.8277,1254.2074 " fill="none" id="EsperaSensorXicara-to-ErroSemXicara" style="stroke:#000000;stroke-width:1.0;"/><polygon fill="#000000" points="591.03,1258.49,587.5815,1249.2646,587.5281,1254.9212,581.8715,1254.8677,591.03,1258.49" style="stroke:#000000;stroke-width:1.0;"/><text fill="#000000" font-family="Verdana" font-size="13" lengthAdjust="spacing" textLength="277.5068" x="557.93" y="1224.7669">pronto_sensor_xicara=1 &amp;&amp; tem_xicara=0</text></g><!--link EsperaSensorXicara to AtivaBomba--><g id="link_EsperaSensorXicara_AtivaBomba"><path d="M272.37,1182.05 C252.33,1194.5 237.2,1210.79 248.93,1228.7 C263.72,1251.3 284.5219,1262.7342 309.2519,1270.4442 " fill="none" id="EsperaSensorXicara-to-AtivaBomba" style="stroke:#000000;stroke-width:1.0;"/><polygon fill="#000000" points="314.98,1272.23,307.5784,1265.7325,310.2066,1270.7418,305.1973,1273.37,314.98,1272.23" style="stroke:#000000;stroke-width:1.0;"/><text fill="#000000" font-family="Verdana" font-size="13" lengthAdjust="spacing" textLength="277.5068" x="249.93" y="1224.7669">pronto_sensor_xicara=1 &amp;&amp; tem_xicara=1</text></g><!--link EsperaSensorXicara to EsperaSensorXicara--><g id="link_EsperaSensorXicara_EsperaSensorXicara"><path d="M411.71,1146.33 C431.59,1147.15 446.3,1150.57 446.3,1156.57 C446.3,1162.57 437.5848,1165.7297 417.7048,1166.5597 " fill="none" id="EsperaSensorXicara-to-EsperaSensorXicara" style="stroke:#000000;stroke-width:1.0;"/><polygon fill="#000000" points="411.71,1166.81,420.869,1170.4311,416.7056,1166.6014,420.5353,1162.4381,411.71,1166.81" style="stroke:#000000;stroke-width:1.0;"/><text fill="#000000" font-family="Verdana" font-size="13" lengthAdjust="spacing" textLength="302.4087" x="452.3" y="1161.1369">pronto_sensor_xicara=0 &amp;&amp; timeout_xicara=0</text></g><!--link AtivaBomba to EsperaBomba--><g id="link_AtivaBomba_EsperaBomba"><path d="M396.94,1309.33 C414.56,1327.3 434.1893,1347.3158 451.7993,1365.2758 " fill="none" id="AtivaBomba-to-EsperaBomba" style="stroke:#000000;stroke-width:1.0;"/><polygon fill="#000000" points="456,1369.56,452.5551,1360.3333,452.4994,1365.9899,446.8428,1365.9342,456,1369.56" style="stroke:#000000;stroke-width:1.0;"/></g><!--link EsperaBomba to EsperaBomba--><g id="link_EsperaBomba_EsperaBomba"><path d="M538.9,1384.56 C558.19,1384.62 573.55,1388.08 573.55,1394.97 C573.55,1401.85 564.19,1405.3044 544.9,1405.3544 " fill="none" id="EsperaBomba-to-EsperaBomba" style="stroke:#000000;stroke-width:1.0;"/><polygon fill="#000000" points="538.9,1405.37,547.9103,1409.3467,543.9,1405.357,547.8896,1401.3467,538.9,1405.37" style="stroke:#000000;stroke-width:1.0;"/><text fill="#000000" font-family="Verdana" font-size="13" lengthAdjust="spacing" textLength="91.603" x="579.55" y="1399.5369">fim_bomba=0</text></g><!--link EsperaBomba to AtivaEbulidor--><g id="link_EsperaBomba_AtivaEbulidor"><path d="M489.49,1420.39 C498.13,1442.44 508.5715,1469.1234 517.2015,1491.1534 " fill="none" id="EsperaBomba-to-AtivaEbulidor" style="stroke:#000000;stroke-width:1.0;"/><polygon fill="#000000" points="519.39,1496.74,519.8317,1486.9011,517.5663,1492.0845,512.3828,1489.819,519.39,1496.74" style="stroke:#000000;stroke-width:1.0;"/><text fill="#000000" font-family="Verdana" font-size="13" lengthAdjust="spacing" textLength="91.603" x="508.93" y="1463.0369">fim_bomba=1</text></g><!--link AtivaEbulidor to EsperaEbulidor--><g id="link_AtivaEbulidor_EsperaEbulidor"><path d="M531.62,1547.59 C533.6,1565.57 535.6122,1583.9062 537.5922,1601.8562 " fill="none" id="AtivaEbulidor-to-EsperaEbulidor" style="stroke:#000000;stroke-width:1.0;"/><polygon fill="#000000" points="538.25,1607.82,541.2391,1598.4357,537.7018,1602.8501,533.2873,1599.3128,538.25,1607.82" style="stroke:#000000;stroke-width:1.0;"/></g><!--link EsperaEbulidor to EsperaEbulidor--><g id="link_EsperaEbulidor_EsperaEbulidor"><path d="M603.94,1622.84 C623.42,1623.05 638.71,1626.51 638.71,1633.23 C638.71,1639.95 629.4197,1643.3553 609.9397,1643.5653 " fill="none" id="EsperaEbulidor-to-EsperaEbulidor" style="stroke:#000000;stroke-width:1.0;"/><polygon fill="#000000" points="603.94,1643.63,612.9826,1647.5328,608.9397,1643.5761,612.8964,1639.5332,603.94,1643.63" style="stroke:#000000;stroke-width:1.0;"/><text fill="#000000" font-family="Verdana" font-size="13" lengthAdjust="spacing" textLength="257.9053" x="644.71" y="1637.7969">fim_ebulidor=0 &amp;&amp; timeout_ebulidor=0</text></g><!--link EsperaEbulidor to ErroEbulidor--><g id="link_EsperaEbulidor_ErroEbulidor"><path d="M603.93,1650.38 C639.57,1660.12 684.71,1673.48 723.93,1688.23 C760.04,1701.82 794.1299,1717.4944 824.0699,1732.1344 " fill="none" id="EsperaEbulidor-to-ErroEbulidor" style="stroke:#000000;stroke-width:1.0;"/><polygon fill="#000000" points="829.46,1734.77,823.1319,1727.2231,824.9682,1732.5736,819.6177,1734.4099,829.46,1734.77" style="stroke:#000000;stroke-width:1.0;"/><text fill="#000000" font-family="Verdana" font-size="13" lengthAdjust="spacing" textLength="129.5874" x="763.93" y="1701.2969">timeout_ebulidor=1</text></g><!--link EsperaEbulidor to AtivaValvula--><g id="link_EsperaEbulidor_AtivaValvula"><path d="M567.08,1658.66 C590.7,1680.71 620.8648,1708.8748 644.4548,1730.9048 " fill="none" id="EsperaEbulidor-to-AtivaValvula" style="stroke:#000000;stroke-width:1.0;"/><polygon fill="#000000" points="648.84,1735,644.9924,1725.9338,645.1857,1731.5874,639.5322,1731.7807,648.84,1735" style="stroke:#000000;stroke-width:1.0;"/><text fill="#000000" font-family="Verdana" font-size="13" lengthAdjust="spacing" textLength="99.7788" x="617.93" y="1701.2969">fim_ebulidor=1</text></g><!--link ErroEbulidor to Inicio--><g id="link_ErroEbulidor_Inicio"><path d="M899.91,1735 C919.11,1711.12 943.93,1672.79 943.93,1634.23 C943.93,278.05 943.93,278.05 943.93,278.05 C943.93,226.22 915.8737,177.3604 894.8337,147.2104 " fill="none" id="ErroEbulidor-to-Inicio" style="stroke:#000000;stroke-width:1.0;"/><polygon fill="#000000" points="891.4,142.29,893.2702,151.9597,894.2614,146.3903,899.8307,147.3815,891.4,142.29" style="stroke:#000000;stroke-width:1.0;"/></g><!--link AtivaValvula to EsperaValvula--><g id="link_AtivaValvula_EsperaValvula"><path d="M696.7,1785.89 C712.67,1803.88 730.2971,1823.7327 746.2471,1841.7027 " fill="none" id="AtivaValvula-to-EsperaValvula" style="stroke:#000000;stroke-width:1.0;"/><polygon fill="#000000" points="750.23,1846.19,747.2472,1836.8037,746.9109,1842.4505,741.264,1842.1143,750.23,1846.19" style="stroke:#000000;stroke-width:1.0;"/></g><!--link EsperaValvula to EsperaValvula--><g id="link_EsperaValvula_EsperaValvula"><path d="M832.12,1861.2 C851.44,1861.31 866.75,1864.79 866.75,1871.63 C866.75,1878.48 857.4399,1881.9158 838.1199,1882.0258 " fill="none" id="EsperaValvula-to-EsperaValvula" style="stroke:#000000;stroke-width:1.0;"/><polygon fill="#000000" points="832.12,1882.06,841.1426,1886.0087,837.1199,1882.0315,841.0971,1878.0088,832.12,1882.06" style="stroke:#000000;stroke-width:1.0;"/><text fill="#000000" font-family="Verdana" font-size="13" lengthAdjust="spacing" textLength="93.2979" x="872.75" y="1876.1969">fim_valvula=0</text></g><!--link EsperaValvula to Fim--><g id="link_EsperaValvula_Fim"><path d="M796.33,1897.08 C818.35,1919.15 846.3522,1947.2125 868.3522,1969.2625 " fill="none" id="EsperaValvula-to-Fim" style="stroke:#000000;stroke-width:1.0;"/><polygon fill="#000000" points="872.59,1973.51,869.0649,1964.3136,869.0585,1969.9705,863.4016,1969.964,872.59,1973.51" style="stroke:#000000;stroke-width:1.0;"/><text fill="#000000" font-family="Verdana" font-size="13" lengthAdjust="spacing" textLength="93.2979" x="842.93" y="1939.8269">fim_valvula=1</text></g><!--link Fim to Inicio--><g id="link_Fim_Inicio"><path d="M925.8,1983.4 C960.73,1963.58 1014.93,1924.47 1014.93,1872.63 C1014.93,278.05 1014.93,278.05 1014.93,278.05 C1014.93,210.45 948.3194,161.1328 906.8294,136.5028 " fill="none" id="Fim-to-Inicio" style="stroke:#000000;stroke-width:1.0;"/><polygon fill="#000000" points="901.67,133.44,907.3672,141.4738,905.9695,135.9923,911.4509,134.5946,901.67,133.44" style="stroke:#000000;stroke-width:1.0;"/></g><!--link ErroSemAgua to Inicio--><g id="link_ErroSemAgua_Inicio"><path d="M699.87,906.11 C727.85,898.35 758.9,885.18 779.93,862.9 C802.65,838.84 801.93,824.86 801.93,791.77 C801.93,278.05 801.93,278.05 801.93,278.05 C801.93,226.22 829.9863,177.3604 851.0263,147.2104 " fill="none" id="ErroSemAgua-to-Inicio" style="stroke:#000000;stroke-width:1.0;"/><polygon fill="#000000" points="854.46,142.29,846.0293,147.3815,851.5986,146.3903,852.5898,151.9597,854.46,142.29" style="stroke:#000000;stroke-width:1.0;"/></g><!--link ErroSemXicara to Inicio--><g id="link_ErroSemXicara_Inicio"><path d="M681.38,1273.84 C740.35,1264.86 819.7,1249.4 843.93,1228.7 C869.89,1206.53 872.93,1191.71 872.93,1157.57 C872.93,278.05 872.93,278.05 872.93,278.05 C872.93,229.98 872.93,179.79 872.93,148.4 " fill="none" id="ErroSemXicara-to-Inicio" style="stroke:#000000;stroke-width:1.0;"/><polygon fill="#000000" points="872.93,142.4,868.93,151.4,872.93,147.4,876.93,151.4,872.93,142.4" style="stroke:#000000;stroke-width:1.0;"/></g><!--SRC=[ZLLDQzmm4BthLwW4SYW4xAjW2oaaq4EX42Y1D2pQjP8AR6ihoql8AR-WFxA_fBBrET8unEnXhNdlpHj9C_vaVej1q5FFvKZ8PBWHzDieZrBHYuk7W-gxnsSjnEX3FxGuSSqPVHMQxoSnJahl-VFCTotzDUQBB_9eWMdve8P3zdhc_Ndk0KrBtgTtSPXxsIczQuEjc-ba0zzLfmXqSxTclBOkK5yUV6ta6K07qSa00YaIAEu1_xCmZceqV6_a8DHi0XFpShyM3zt43Qdz1FZPxi6J_H-nY2s7VTTOP0UwrkfE3A0WBJf6bqVOeBKu51lXA4KoJugKCj5QqjVbe9qsvSj2E7fGp8e2l1j_u2poiYkGKmCmBo-iLVMjNkkxj6RywUuWIqxJhGGP0p2mR-LGRsHudkImv7du_4ZXStNrnRSMyHs61XazkQkawOus6z3OXncs9NwrmEPza_uNeKN9NY8L-h0feKYlGOQjkSAipABnAAF_tlww7obZoLHQ95LNueQiC6nDUfaife7GREZbNS8mejMxfDDi6rIAqOXD8MGIV4omhGMn_S35caKCrDyK1-Ajb6SI7QAdugEb3xTCaC7qpXQKywaw7nzeDdNXM68uVTrMayRJjboQLn_LQZ4jV7Es9C51HOiayvBqt9JC_fSncyJE6pzXcmfP3DO4RNt2E3UJRXoly1L1EC4uN45XQHNLoKOsgpajne4Z6sIs-FmRa0rQahEo4lmA0MzrtEK9NuM687ZxBO2ebYoVXzm3oKTB5e2tEGN-0m00]--></g></svg>